<svg width="32" height="32" viewBox="0 0 32 32" fill="none" xmlns="http://www.w3.org/2000/svg">
  <!-- Simplified aperture icon for favicon -->
  <circle cx="16" cy="16" r="14" stroke="currentColor" stroke-width="1.5" fill="none"/>

  <!-- Aperture blades (simplified) -->
  <g transform="translate(16, 16)">
    <path d="M 0,-8 L 2.5,-5.5 L 2.5,-2.5 L 0,-4 Z" fill="currentColor" opacity="0.9"/>
    <path d="M 5.66,-5.66 L 4,-2.5 L 2.5,-2.5 L 5.66,-4 Z" fill="currentColor" opacity="0.8" transform="rotate(45)"/>
    <path d="M 8,0 L 5.5,2.5 L 2.5,2.5 L 4,0 Z" fill="currentColor" opacity="0.7" transform="rotate(90)"/>
    <path d="M 5.66,5.66 L 2.5,4 L 2.5,2.5 L 4,5.66 Z" fill="currentColor" opacity="0.6" transform="rotate(135)"/>
    <path d="M 0,8 L -2.5,5.5 L -2.5,2.5 L 0,4 Z" fill="currentColor" opacity="0.5" transform="rotate(180)"/>
    <path d="M -5.66,5.66 L -4,2.5 L -2.5,2.5 L -5.66,4 Z" fill="currentColor" opacity="0.4" transform="rotate(225)"/>
    <path d="M -8,0 L -5.5,-2.5 L -2.5,-2.5 L -4,0 Z" fill="currentColor" opacity="0.3" transform="rotate(270)"/>
    <path d="M -5.66,-5.66 L -2.5,-4 L -2.5,-2.5 L -4,-5.66 Z" fill="currentColor" opacity="0.2" transform="rotate(315)"/>
  </g>

  <!-- Center -->
  <circle cx="16" cy="16" r="3.5" fill="none" stroke="currentColor" stroke-width="1"/>
</svg>
